<svg width="2200" height="1100" viewBox="0 0 2200 1100" fill="none" xmlns="http://www.w3.org/2000/svg">
<path d="M1524.78 720.335C1507.96 615.426 1439.6 527.346 1237.12 445.168C1166.79 412.821 1088.38 389.656 1065.01 336.325C1056.71 305.289 1055.62 287.805 1060.86 269.008C1075.93 208.03 1148.66 189.016 1206.32 206.5C1243.46 218.958 1278.62 247.592 1299.81 293.269C1398.97 229.014 1398.75 229.449 1467.99 185.302C1442.65 145.961 1429.11 127.819 1412.51 110.992C1352.88 44.3311 1271.63 10.0172 1141.67 12.6399C1119.18 15.4812 1096.46 18.5388 1073.96 21.3823C1009.09 37.7743 947.28 71.8697 911.023 117.549C802.25 241.035 833.266 457.188 965.628 546.145C1096.02 644.059 1287.58 666.352 1312.04 757.929C1335.85 870.05 1229.7 906.329 1124.2 893.436C1046.44 877.263 1003.2 837.703 956.454 765.797C870.399 815.629 870.399 815.629 781.939 866.553C802.908 912.451 824.966 933.214 860.133 972.992C1026.57 1141.94 1443.09 1133.63 1517.79 877.918C1520.85 869.174 1540.94 810.6 1524.78 720.335ZM664.209 26.1884H449.285C449.285 211.964 448.414 396.429 448.414 582.205C448.414 700.446 454.529 808.851 435.309 842.072C403.856 907.42 322.386 899.335 285.255 886.656C247.468 868.079 228.248 841.633 205.969 804.262C199.853 793.552 195.266 785.247 193.735 784.591C135.419 820.216 77.3178 856.058 19 891.685C48.0519 951.352 90.8598 1003.15 145.683 1036.81C227.59 1085.98 337.673 1101.06 452.782 1074.62C527.7 1052.76 592.35 1007.52 626.204 938.676C675.13 848.411 664.646 739.131 664.209 618.267C665.302 421.126 664.209 223.985 664.209 26.1884Z" fill="#31C433"/>
<path d="M1816.6 835.6V619.6H1601.8V480.4H1816.6V264.4H1965.4V480.4H2180.2V619.6H1965.4V835.6H1816.6Z" fill="#31C433"/>
</svg>
