<svg width="1512" height="1075" viewBox="0 0 1512 1075" fill="none" xmlns="http://www.w3.org/2000/svg">
<path d="M1505.78 707.835C1488.96 602.926 1420.6 514.846 1218.12 432.668C1147.79 400.321 1069.38 377.156 1046.01 323.825C1037.71 292.789 1036.62 275.305 1041.86 256.508C1056.93 195.53 1129.66 176.516 1187.32 194C1224.46 206.458 1259.62 235.092 1280.81 280.769C1379.97 216.514 1379.75 216.949 1448.99 172.802C1423.65 133.461 1410.11 115.319 1393.51 98.4919C1333.88 31.8311 1252.63 -2.48284 1122.67 0.139877C1100.18 2.98116 1077.46 6.03881 1054.96 8.88227C990.095 25.2743 928.28 59.3697 892.023 105.049C783.25 228.535 814.266 444.688 946.628 533.645C1077.02 631.559 1268.58 653.852 1293.04 745.429C1316.85 857.55 1210.7 893.829 1105.2 880.936C1027.44 864.763 984.198 825.203 937.454 753.297C851.399 803.129 851.399 803.129 762.939 854.053C783.908 899.951 805.966 920.714 841.133 960.492C1007.57 1129.44 1424.09 1121.13 1498.79 865.418C1501.85 856.674 1521.94 798.1 1505.78 707.835ZM645.209 13.6884H430.285C430.285 199.464 429.414 383.929 429.414 569.705C429.414 687.946 435.529 796.351 416.309 829.572C384.856 894.92 303.386 886.835 266.255 874.156C228.468 855.579 209.248 829.133 186.969 791.762C180.853 781.052 176.266 772.747 174.735 772.091C116.419 807.716 58.3178 843.558 0 879.185C29.0519 938.852 71.8598 990.651 126.683 1024.31C208.59 1073.48 318.673 1088.56 433.782 1062.12C508.7 1040.26 573.35 995.022 607.204 926.176C656.13 835.911 645.646 726.631 645.209 605.767C646.302 408.626 645.209 211.485 645.209 13.6884Z" fill="#31C433"/>
</svg>
