<svg width="2500" height="2500" viewBox="0 0 2500 2500" fill="none" xmlns="http://www.w3.org/2000/svg">
<rect width="2500" height="2500" rx="250" fill="#31C433"/>
<path d="M1674.78 1945.33C1657.96 1840.43 1589.6 1752.35 1387.12 1670.17C1316.79 1637.82 1238.38 1614.66 1215.01 1561.32C1206.71 1530.29 1205.62 1512.8 1210.86 1494.01C1225.93 1433.03 1298.66 1414.02 1356.33 1431.5C1393.46 1443.96 1428.62 1472.59 1449.81 1518.27C1548.97 1454.01 1548.75 1454.45 1617.99 1410.3C1592.65 1370.96 1579.11 1352.82 1562.51 1335.99C1502.88 1269.33 1421.63 1235.02 1291.67 1237.64C1269.18 1240.48 1246.46 1243.54 1223.96 1246.38C1159.1 1262.77 1097.28 1296.87 1061.02 1342.55C952.25 1466.04 983.266 1682.19 1115.63 1771.14C1246.02 1869.06 1437.58 1891.35 1462.04 1982.93C1485.85 2095.05 1379.7 2131.33 1274.2 2118.44C1196.44 2102.26 1153.2 2062.7 1106.45 1990.8C1020.4 2040.63 1020.4 2040.63 931.939 2091.55C952.908 2137.45 974.966 2158.21 1010.13 2197.99C1176.57 2366.94 1593.09 2358.63 1667.79 2102.92C1670.85 2094.17 1690.95 2035.6 1674.78 1945.33ZM814.21 1251.19H599.285C599.285 1436.96 598.414 1621.43 598.414 1807.2C598.414 1925.45 604.53 2033.85 585.309 2067.07C553.856 2132.42 472.386 2124.34 435.255 2111.66C397.468 2093.08 378.248 2066.63 355.969 2029.26C349.853 2018.55 345.266 2010.25 343.735 2009.59C285.419 2045.22 227.318 2081.06 169 2116.69C198.052 2176.35 240.86 2228.15 295.683 2261.81C377.59 2310.98 487.673 2326.06 602.782 2299.62C677.7 2277.76 742.35 2232.52 776.205 2163.68C825.13 2073.41 814.646 1964.13 814.21 1843.27C815.302 1646.13 814.21 1448.99 814.21 1251.19Z" fill="white"/>
<path d="M1966.6 2060.6V1844.6H1751.8V1705.4H1966.6V1489.4H2115.4V1705.4H2330.2V1844.6H2115.4V2060.6H1966.6Z" fill="white"/>
</svg>
